<svg width="18" height="18" viewBox="0 0 18 18" fill="none" xmlns="http://www.w3.org/2000/svg">
<path d="M13.6667 8H4.33333C3.59695 8 3 8.56982 3 9.27273V13.7273C3 14.4302 3.59695 15 4.33333 15H13.6667C14.403 15 15 14.4302 15 13.7273V9.27273C15 8.56982 14.403 8 13.6667 8Z" stroke="#939393" stroke-width="2" stroke-linecap="round" stroke-linejoin="round"/>
<path d="M6 7V4.77778C6 4.04107 6.31607 3.33453 6.87868 2.81359C7.44129 2.29266 8.20435 2 9 2C9.79565 2 10.5587 2.29266 11.1213 2.81359C11.6839 3.33453 12 4.04107 12 4.77778V7" stroke="#939393" stroke-width="2" stroke-linecap="round" stroke-linejoin="round"/>
</svg>
