<svg width="220" height="52" viewBox="0 0 220 52" fill="none" xmlns="http://www.w3.org/2000/svg">
<path d="M52.2451 46.1339C52.2876 45.3981 52.3296 44.5265 52.3716 43.5622C52.3716 42.6442 52.4136 41.7726 52.4136 40.9911V19.5954C52.4136 18.8609 52.3716 18.0344 52.3716 17.0244C52.3296 16.1064 52.2876 15.2341 52.2451 14.4533H61.3566C62.9599 14.4533 64.478 14.5911 65.8275 14.8209C67.1777 15.0958 68.3167 15.5554 69.2866 16.1984C70.2145 16.8409 70.9744 17.7132 71.522 18.7238C72.0282 19.8252 72.2814 21.1114 72.2814 22.6725C72.2814 24.509 71.9863 25.978 71.3955 27.0344C70.7627 28.1358 69.8348 28.963 68.6118 29.5591C70.0039 30.2015 71.1849 31.1201 72.1128 32.4063C73.0407 33.7375 73.5044 35.3449 73.5044 37.2729C73.5044 39.0174 73.2093 40.4871 72.661 41.5891C72.0702 42.7375 71.2689 43.6549 70.2565 44.2979C69.202 44.9873 67.9784 45.4457 66.5449 45.7206C65.0688 45.9961 63.4655 46.1345 61.7357 46.1345H52.2451V46.1339ZM57.8556 27.355H60.1336C60.9769 27.355 61.8208 27.3086 62.6642 27.1709C63.4661 27.0794 64.1829 26.849 64.8151 26.5284C65.4059 26.2529 65.9121 25.7939 66.2918 25.2423C66.6294 24.6919 66.8406 24.0031 66.8406 23.0845C66.8406 22.3043 66.714 21.6612 66.4609 21.1565C66.1652 20.6975 65.7855 20.2836 65.3639 20.0081C64.9002 19.7783 64.3934 19.5948 63.8877 19.5034C63.2975 19.4113 62.7487 19.3656 62.1585 19.3656H57.8561V27.355H57.8556ZM57.8556 41.2215H62.5376C64.2254 41.2215 65.575 40.946 66.5454 40.348C67.4733 39.797 67.979 38.6035 67.979 36.8596C67.979 35.9404 67.7684 35.2059 67.3462 34.5635C66.8825 34.0124 66.3338 33.5071 65.659 33.1402C64.9842 32.8189 64.2248 32.5891 63.3815 32.4514C62.5376 32.36 61.6937 32.2679 60.9349 32.2679H57.8556V41.2215Z" fill="#7FA7CA"/>
<path d="M90.5424 41.0832C91.1332 41.0832 91.808 41.0832 92.6093 41.0375C93.3687 41.0375 94.0435 40.9912 94.6768 40.8991V46.3174C94.086 46.271 93.4538 46.2253 92.7359 46.1796C91.9771 46.1796 91.3018 46.1339 90.7535 46.1339H76.834C76.876 45.4445 76.918 44.618 76.96 43.6086C76.96 42.6443 77.0025 41.772 77.0025 40.9905V19.5948C77.0025 18.8603 76.96 18.0338 76.96 17.0695C76.918 16.1509 76.876 15.2793 76.834 14.4521H82.5705C82.4865 15.2329 82.4865 16.1052 82.4865 17.0695C82.4439 18.0795 82.4439 18.9061 82.4439 19.5948V41.0832H90.5424Z" fill="#7FA7CA"/>
<path d="M102.435 32.2673C102.435 33.7833 102.519 35.1139 102.73 36.2623C102.899 37.4558 103.237 38.4201 103.743 39.1546C104.164 39.9811 104.797 40.5779 105.599 40.9455C106.358 41.4038 107.328 41.5879 108.509 41.5879C109.69 41.5879 110.66 41.4038 111.462 40.9455C112.221 40.5779 112.812 39.9811 113.318 39.1546C113.74 38.4201 114.077 37.4558 114.289 36.2623C114.457 35.1139 114.584 33.7833 114.584 32.2673V19.6412C114.584 18.9061 114.542 18.0338 114.542 17.0695C114.5 16.1509 114.458 15.2793 114.458 14.4521H120.153C120.111 15.2336 120.111 16.1052 120.111 17.0695C120.068 18.0801 120.068 18.9061 120.068 19.6412V32.9104C120.068 37.5009 119.056 40.8991 117.116 43.1953C115.133 45.5366 112.264 46.6843 108.511 46.6843C104.714 46.6843 101.846 45.5366 99.9053 43.1953C97.9229 40.8991 96.9525 37.5009 96.9525 32.9104V19.6412C96.9525 18.9061 96.9105 18.0338 96.9105 17.0695C96.8685 16.1509 96.8265 15.2793 96.8265 14.4521H102.521C102.479 15.2336 102.479 16.1052 102.479 17.0695C102.437 18.0801 102.437 18.9061 102.437 19.6412V32.2673H102.435Z" fill="#7FA7CA"/>
<path d="M130.903 41.0832H139.635C140.183 41.0832 140.859 41.0832 141.661 41.0375C142.419 41.0375 143.136 40.9911 143.727 40.8991V46.3174C143.137 46.271 142.504 46.2253 141.786 46.1796C141.028 46.1796 140.352 46.1339 139.805 46.1339H125.336C125.378 45.3067 125.42 44.4345 125.463 43.5622V40.9454V19.5948C125.463 18.8603 125.421 18.0338 125.421 17.0238C125.378 16.1052 125.336 15.2335 125.294 14.4527H139.636C140.184 14.4527 140.818 14.4527 141.577 14.4064C142.251 14.4064 142.926 14.3606 143.558 14.2692V19.6869C143.264 19.6869 142.926 19.6412 142.589 19.5948C142.209 19.5948 141.829 19.5948 141.492 19.5491C141.07 19.5491 140.733 19.5491 140.395 19.5028H139.425H130.904V27.2166H138.623C139.171 27.2166 139.805 27.2166 140.563 27.1709C141.238 27.1709 141.913 27.1245 142.546 27.0331V32.4508C141.955 32.4051 141.322 32.3594 140.606 32.313C139.847 32.313 139.171 32.2673 138.623 32.2673H130.904V41.0832H130.903Z" fill="#7FA7CA"/>
<path d="M147.688 19.5948C147.688 18.8603 147.647 18.0338 147.647 17.0238C147.605 16.1052 147.563 15.2336 147.521 14.4521H156.421C157.939 14.4521 159.373 14.6356 160.808 14.9117C162.2 15.2336 163.465 15.7383 164.562 16.4728C165.659 17.2073 166.503 18.2179 167.177 19.4571C167.81 20.7426 168.148 22.3037 168.148 24.1866C168.148 26.0231 167.81 27.5848 167.135 28.824C166.461 30.1095 165.574 31.0739 164.562 31.809C163.465 32.5886 162.284 33.1396 160.977 33.4157C159.626 33.7833 158.277 33.9204 157.011 33.9204H153.13V40.9912C153.13 41.7726 153.13 42.6449 153.172 43.6092C153.172 44.6186 153.172 45.4457 153.257 46.1339H147.521C147.563 45.4451 147.605 44.6186 147.647 43.6092C147.647 42.6449 147.688 41.7726 147.688 40.9912V19.5948ZM153.13 28.9624H157.433C158.023 28.9624 158.613 28.8703 159.246 28.6869C159.836 28.5491 160.427 28.2736 160.933 27.906C161.398 27.5385 161.82 27.0801 162.156 26.437C162.453 25.8403 162.621 25.1058 162.621 24.1872C162.621 23.2692 162.41 22.4884 162.073 21.8459C161.651 21.2486 161.187 20.7439 160.639 20.3763C160.049 20.0094 159.415 19.7789 158.741 19.5955C158.023 19.5034 157.39 19.412 156.8 19.412H153.13V28.9624Z" fill="#7FA7CA"/>
<path d="M169.535 30.2936C169.535 27.8139 169.832 25.5641 170.463 23.5441C171.053 21.5697 171.939 19.8703 173.078 18.4013C174.175 17.0237 175.567 15.9217 177.17 15.0957C178.731 14.3606 180.503 13.9473 182.485 13.9473C184.425 13.9473 186.238 14.3606 187.842 15.0957C189.403 15.9217 190.753 17.0243 191.891 18.4013C192.988 19.8703 193.874 21.5697 194.507 23.5441C195.098 25.5641 195.434 27.8139 195.434 30.2936C195.434 32.8189 195.098 35.0688 194.507 37.0894C193.874 39.1088 192.988 40.854 191.891 42.2315C190.753 43.6542 189.403 44.7563 187.842 45.4914C186.239 46.2722 184.425 46.6392 182.485 46.6392C180.503 46.6392 178.731 46.2722 177.17 45.4914C175.567 44.7563 174.175 43.6542 173.078 42.2315C171.94 40.854 171.053 39.1088 170.463 37.0894C169.832 35.0688 169.535 32.8189 169.535 30.2936ZM175.062 30.2936C175.062 31.7632 175.188 33.1401 175.44 34.4714C175.652 35.849 176.074 37.0894 176.665 38.0988C177.212 39.2009 177.972 40.0274 178.943 40.6242C179.87 41.2666 181.051 41.5885 182.486 41.5885C183.877 41.5885 185.059 41.2666 186.029 40.6242C186.957 40.0274 187.758 39.2009 188.349 38.0988C188.896 37.0894 189.319 35.849 189.572 34.4714C189.782 33.1401 189.909 31.7632 189.909 30.2936C189.909 28.8239 189.782 27.4006 189.53 26.0237C189.234 24.6918 188.813 23.4977 188.222 22.442C187.632 21.432 186.873 20.5597 185.945 19.9166C184.974 19.3193 183.835 18.9987 182.486 18.9987C181.135 18.9987 179.996 19.3199 179.069 19.9166C178.098 20.5597 177.339 21.432 176.749 22.442C176.159 23.4983 175.736 24.6918 175.484 26.0237C175.188 27.4 175.062 28.8239 175.062 30.2936Z" fill="#7FA7CA"/>
<path d="M211.208 19.5034V40.9912C211.208 41.7263 211.208 42.4151 211.249 43.1489C211.249 43.8841 211.291 44.8941 211.376 46.1345H205.513C205.555 45.3988 205.597 44.5272 205.639 43.5629V40.9918V19.5041H200.789C200.198 19.5041 199.565 19.5504 198.848 19.5504C198.088 19.5961 197.414 19.6418 196.865 19.6881V14.2705C197.456 14.3619 198.173 14.4076 198.975 14.4076C199.733 14.454 200.409 14.454 201 14.454H215.848C216.396 14.454 217.071 14.454 217.873 14.4076C218.632 14.4076 219.348 14.3619 219.982 14.2705V19.6881C219.391 19.6424 218.759 19.5961 218 19.5504C217.241 19.5504 216.566 19.5041 216.017 19.5041H211.208V19.5034Z" fill="#7FA7CA"/>
<path d="M14.8296 12.4852H29.7887C30.0562 12.4852 30.2719 12.2517 30.2719 11.9593C30.2719 11.6693 30.0562 11.4339 29.7887 11.4339H29.7507C29.6966 11.2442 29.6328 10.8904 29.6328 10.8904H29.6351C29.5718 7.23793 27.2385 4.18847 24.0999 3.33375C24.1563 3.27238 24.1902 3.18783 24.1902 3.09454C24.1902 2.90668 24.051 2.75515 23.8796 2.75515H23.5966C23.5149 2.67939 23.2831 2.42579 23.271 2.01314C23.3527 2.00124 23.4154 1.92611 23.4154 1.83344C23.4154 1.76018 23.3751 1.69819 23.3176 1.66939H23.921C24.0171 1.66939 24.0982 1.608 24.1431 1.5241L24.2702 1.2705H24.3962C24.4577 1.2705 24.5066 1.21727 24.5066 1.15152C24.5066 1.0864 24.4577 1.03194 24.3962 1.03194H24.3651C24.3703 0.996247 24.3743 0.959922 24.3743 0.922978C24.3743 0.413899 23.9952 0 23.5281 0H22.7837H22.1343H21.3916C20.9233 0 20.5442 0.413899 20.5442 0.922978C20.5442 0.959922 20.5489 0.996247 20.5535 1.03194H20.5207C20.462 1.03194 20.4131 1.08703 20.4131 1.15152C20.4131 1.21727 20.462 1.2705 20.5207 1.2705H20.6478L20.7755 1.5241C20.821 1.608 20.9021 1.66939 20.9981 1.66939H21.6016C21.5446 1.69756 21.5049 1.76018 21.5049 1.83344C21.5049 1.92549 21.5659 2.00062 21.6464 2.01314C21.6344 2.42516 21.4037 2.67939 21.3232 2.75515H21.0396C20.867 2.75515 20.7278 2.90668 20.7278 3.09454C20.7278 3.15903 20.7456 3.21854 20.7738 3.26988C17.5086 4.02505 15.0499 7.13961 14.9861 10.8898C14.9861 10.8898 14.9222 11.2436 14.8676 11.4333H14.829C14.5615 11.4333 14.3458 11.6687 14.3458 11.9586C14.3464 12.2517 14.5615 12.4852 14.8296 12.4852Z" fill="#84A8C6"/>
<path d="M43.2773 39.0337L39.6871 28.3969C35.8203 16.6067 35.2956 15.6349 32.6638 15.3744C31.6605 15.2761 30.6688 15.8371 29.9411 16.4063C29.9411 15.3669 29.9486 14.5679 29.9532 14.1346H29.9555L30.2707 13.6186C30.2707 13.4739 30.1637 13.3581 30.032 13.3581H14.5851C14.4528 13.3581 14.3452 13.4739 14.3452 13.6186L14.7467 14.1346H14.7514C14.7749 16.1615 14.844 26.1846 14.0254 31.2929C13.4536 34.8546 12.8277 38.05 12.0131 41.3455C11.1226 40.415 9.84036 38.7068 9.31342 36.1921L5.6214 18.1884C5.6214 18.1884 4.43924 12.4859 1.22527 12.0651H0.211657C0.211657 12.0651 -0.395815 12.1596 0.447516 12.8334C0.447516 12.8334 3.30886 14.7858 4.03023 18.2723L7.91266 37.2059C7.91266 37.2059 8.6628 41.4814 11.462 43.4826C11.114 44.7788 10.7332 46.105 10.3115 47.4883C10.3115 47.4883 9.23346 49.9009 15.9082 50.8045C15.9082 50.8045 19.5185 51.0499 21.8397 51.1188V51.1382C21.9939 51.1382 22.1665 51.1351 22.3511 51.1307C22.5352 51.1351 22.7083 51.1382 22.8631 51.1382V51.1188C25.1825 51.0499 28.7923 50.8045 28.7923 50.8045C35.4688 49.9009 34.389 47.4883 34.389 47.4883C34.37 47.4269 34.3522 47.368 34.3338 47.3067L42.3978 44.1464L42.4691 44.1163C44.3565 43.1564 43.871 40.4864 43.2773 39.0337ZM41.7943 42.462L33.8252 45.5816C32.409 40.6686 31.4897 36.3487 30.678 31.2923C30.1436 27.9611 29.9883 22.5378 29.9509 18.6061L30.0406 18.6962C30.4922 18.1659 31.6807 17.0888 32.5125 17.1765C33.9553 17.3168 34.2998 17.3531 38.1224 29.0093L41.7253 39.6855L41.7483 39.7463C41.9324 40.189 42.5082 42.0462 41.7943 42.462Z" fill="#84A8C6"/>
</svg>
