<svg width="279" height="147" viewBox="0 0 279 147" fill="none" xmlns="http://www.w3.org/2000/svg">
<path d="M42.54 24.48H52.32L44.28 62.46H32.58C31.34 58.18 30.26 54 29.34 49.92C28.46 45.84 27.62 41.48 26.82 36.84H26.7C25.78 41.48 24.86 45.84 23.94 49.92C23.06 54 22.06 58.18 20.94 62.46H9.24L1.2 24.48H10.98C11.58 27.28 12.12 30.02 12.6 32.7C13.08 35.38 13.54 38.12 13.98 40.92C14.46 43.68 14.94 46.68 15.42 49.92H15.54C16.14 46.68 16.72 43.68 17.28 40.92C17.84 38.12 18.42 35.38 19.02 32.7C19.62 30.02 20.26 27.28 20.94 24.48H32.58C33.5 28.72 34.4 32.96 35.28 37.2C36.2 41.44 37.1 45.68 37.98 49.92H38.1C38.86 45.68 39.6 41.44 40.32 37.2C41.04 32.96 41.78 28.72 42.54 24.48ZM57.0961 62.46V24.48H85.2961V32.28H66.6961V39.48H82.8361V47.28H66.6961V54.66H85.2961V62.46H57.0961ZM117.684 54.3V62.46H90.0844V24.48H99.6844V54.3H117.684ZM150.221 54.24V61.8C148.301 62.2 146.421 62.5 144.581 62.7C142.741 62.9 140.561 63 138.041 63C134.801 63 132.061 62.72 129.821 62.16C127.621 61.6 125.841 60.62 124.481 59.22C123.161 57.78 122.201 55.76 121.601 53.16C121.001 50.56 120.701 47.22 120.701 43.14C120.701 39.22 121.001 36 121.601 33.48C122.201 30.96 123.161 29.02 124.481 27.66C125.841 26.26 127.621 25.3 129.821 24.78C132.061 24.22 134.801 23.94 138.041 23.94C140.561 23.94 142.741 24.04 144.581 24.24C146.421 24.4 148.301 24.7 150.221 25.14V32.94L150.041 33.06C148.361 32.66 146.741 32.38 145.181 32.22C143.621 32.02 141.701 31.92 139.421 31.92C137.581 31.92 136.061 32.06 134.861 32.34C133.701 32.58 132.781 33.08 132.101 33.84C131.421 34.6 130.941 35.72 130.661 37.2C130.421 38.68 130.301 40.66 130.301 43.14C130.301 45.74 130.421 47.84 130.661 49.44C130.941 51 131.421 52.18 132.101 52.98C132.781 53.78 133.701 54.32 134.861 54.6C136.061 54.88 137.581 55.02 139.421 55.02C141.661 55.02 143.561 54.96 145.121 54.84C146.721 54.68 148.321 54.4 149.921 54L150.221 54.24ZM154.099 43.44C154.099 38.6 154.639 34.76 155.719 31.92C156.839 29.08 158.739 27.04 161.419 25.8C164.139 24.56 167.919 23.94 172.759 23.94C176.399 23.94 179.419 24.28 181.819 24.96C184.219 25.64 186.119 26.74 187.519 28.26C188.919 29.78 189.899 31.8 190.459 34.32C191.059 36.8 191.359 39.84 191.359 43.44C191.359 47.08 191.059 50.16 190.459 52.68C189.899 55.16 188.919 57.16 187.519 58.68C186.119 60.2 184.219 61.3 181.819 61.98C179.419 62.66 176.399 63 172.759 63C169.119 63 166.099 62.66 163.699 61.98C161.299 61.3 159.399 60.2 157.999 58.68C156.599 57.16 155.599 55.16 154.999 52.68C154.399 50.16 154.099 47.08 154.099 43.44ZM172.759 54.6C175.319 54.6 177.239 54.28 178.519 53.64C179.799 53 180.659 51.88 181.099 50.28C181.539 48.64 181.759 46.36 181.759 43.44C181.759 40.56 181.539 38.32 181.099 36.72C180.659 35.12 179.799 34 178.519 33.36C177.239 32.68 175.319 32.34 172.759 32.34C170.239 32.34 168.319 32.68 166.999 33.36C165.719 34 164.839 35.12 164.359 36.72C163.919 38.32 163.699 40.56 163.699 43.44C163.699 46.36 163.919 48.64 164.359 50.28C164.839 51.88 165.719 53 166.999 53.64C168.319 54.28 170.239 54.6 172.759 54.6ZM214.71 60.54C214.03 58.38 213.33 56.08 212.61 53.64C211.93 51.2 211.25 48.78 210.57 46.38C209.89 43.98 209.27 41.74 208.71 39.66C208.15 37.58 207.67 35.78 207.27 34.26C206.87 32.74 206.59 31.66 206.43 31.02L206.19 31.08C206.31 31.8 206.41 32.76 206.49 33.96C206.57 35.12 206.63 36.36 206.67 37.68C206.71 38.96 206.73 40.14 206.73 41.22V62.46H197.55V24.48H213.63C214.19 26.6 214.77 28.84 215.37 31.2C216.01 33.52 216.63 35.84 217.23 38.16C217.87 40.44 218.43 42.62 218.91 44.7C219.39 46.74 219.73 48.52 219.93 50.04H220.05C220.25 48.52 220.57 46.74 221.01 44.7C221.49 42.66 222.03 40.48 222.63 38.16C223.23 35.84 223.85 33.52 224.49 31.2C225.13 28.84 225.71 26.6 226.23 24.48H242.07V62.46H233.01V41.22C233.01 40.14 233.03 38.96 233.07 37.68C233.11 36.36 233.17 35.12 233.25 33.96C233.37 32.76 233.47 31.8 233.55 31.08L233.31 31.02C233.15 31.66 232.87 32.74 232.47 34.26C232.07 35.78 231.57 37.6 230.97 39.72C230.41 41.8 229.79 44.04 229.11 46.44C228.43 48.84 227.73 51.26 227.01 53.7C226.33 56.1 225.67 58.38 225.03 60.54H214.71ZM249.459 62.46V24.48H277.659V32.28H259.059V39.48H275.199V47.28H259.059V54.66H277.659V62.46H249.459Z" fill="#D10F0F"/>
<path d="M15.56 76.592V75.44H9.128V76.592H15.56ZM17.192 73.024V77.84H7.496V73.024H9.128V74.224H15.56V73.024H17.192ZM9.016 84.688V85.84H17.656V87.104H7.384V83.52H15.624V82.496H7.352V81.264H17.24V84.688H9.016ZM5.8 78.864H18.888V80.176H5.8V78.864ZM30.2308 76.064V74.624H21.9108V73.296H31.9108V77.312H23.6068V78.864H32.2308V80.208H21.9428V76.064H30.2308ZM33.4628 81.504V82.832H27.7188V87.264H26.0548V82.832H20.3588V81.504H33.4628ZM38.1975 75.312V79.408C38.8215 79.392 39.4775 79.36 40.1175 79.328V75.312H38.1975ZM43.6215 79.008L43.7335 80.208C40.8215 80.736 37.5095 80.8 35.0935 80.8L34.9175 79.44C35.4455 79.44 36.0215 79.44 36.6135 79.424V75.312H35.3015V73.984H43.0295V75.312H41.7175V79.216C42.3575 79.152 43.0135 79.104 43.6215 79.008ZM42.5655 81.776V82.08C42.5655 83.92 44.4535 85.472 47.2535 85.888L46.6135 87.184C44.3895 86.816 42.6135 85.76 41.7495 84.272C40.8695 85.76 39.0935 86.816 36.8855 87.184L36.2455 85.888C39.0455 85.472 40.9175 83.92 40.9175 82.08V81.776H42.5655ZM46.2135 76.672H48.2615V78.032H46.2135V82.512H44.5655V72.784H46.2135V76.672ZM52.7403 82.608C53.7323 82.608 54.3403 81.312 54.3403 79.024C54.3403 76.736 53.7323 75.456 52.7403 75.456C51.7483 75.456 51.1403 76.736 51.1403 79.024C51.1403 81.312 51.7483 82.608 52.7403 82.608ZM57.3643 78.256V73.056H58.9003V86.544H57.3643V79.616H55.8283C55.6843 82.432 54.5003 84.16 52.7403 84.16C50.8683 84.16 49.6363 82.192 49.6363 79.024C49.6363 75.856 50.8683 73.904 52.7403 73.904C54.4683 73.904 55.6363 75.552 55.8123 78.256H57.3643ZM60.2603 72.784H61.8283V87.216H60.2603V72.784ZM70.3008 77.504C70.3008 79.072 71.8528 80.064 74.0128 80.064C76.1568 80.064 77.7088 79.072 77.7088 77.504C77.7088 75.936 76.1568 74.944 74.0128 74.944C71.8528 74.944 70.3008 75.936 70.3008 77.504ZM74.8288 84.112H80.5728V85.456H67.4848V84.112H73.1808V81.344C70.5408 81.104 68.7008 79.648 68.7008 77.504C68.7008 75.152 70.9408 73.632 74.0128 73.632C77.0688 73.632 79.3248 75.152 79.3248 77.504C79.3248 79.648 77.4688 81.12 74.8288 81.36V84.112ZM93.9475 72.8V83.36H92.2995V72.8H93.9475ZM90.7955 79.776L89.9475 81.088C88.2995 80.48 87.1155 79.296 86.4915 77.792C85.8355 79.408 84.6355 80.72 82.9395 81.36L82.0915 80.032C84.3635 79.2 85.6275 77.136 85.6275 75.024V73.584H87.3075V75.024C87.3075 77.072 88.5715 79.008 90.7955 79.776ZM86.1715 85.616H94.3635V86.96H84.5075V82.368H86.1715V85.616ZM110.356 82.48V78.096H107.508V76.736H110.356V72.784H112.004V82.48H110.356ZM100.948 73.904H107.444C107.444 77.728 105.156 80.352 100.932 81.696L100.244 80.416C103.572 79.376 105.412 77.552 105.684 75.232H100.948V73.904ZM108.068 81.328V81.888C108.068 83.776 109.956 85.408 112.74 85.872L112.084 87.168C109.876 86.768 108.116 85.68 107.252 84.144C106.372 85.696 104.596 86.8 102.372 87.2L101.732 85.904C104.516 85.424 106.42 83.792 106.42 81.888V81.328H108.068ZM121.123 74.24C118.883 74.24 117.683 74.672 117.683 75.504C117.683 76.32 118.883 76.752 121.123 76.752C123.363 76.752 124.563 76.32 124.563 75.504C124.563 74.672 123.363 74.24 121.123 74.24ZM121.123 77.984C117.875 77.984 115.971 77.104 115.971 75.504C115.971 73.888 117.875 73.008 121.123 73.008C124.355 73.008 126.275 73.888 126.275 75.504C126.275 77.104 124.355 77.984 121.123 77.984ZM117.795 84.64V85.84H126.435V87.104H116.163V83.472H124.403V82.432H116.131V81.184H126.019V84.64H117.795ZM114.579 78.832H127.667V80.144H114.579V78.832ZM144.517 74.08V75.296H136.261V74.08H139.573V72.72H141.237V74.08H144.517ZM138.501 78.032C138.501 78.704 139.237 79.104 140.389 79.104C141.541 79.104 142.277 78.704 142.277 78.032C142.277 77.344 141.541 76.928 140.389 76.928C139.237 76.928 138.501 77.344 138.501 78.032ZM144.917 80.752L145.045 81.888C142.021 82.464 138.581 82.528 136.085 82.544L135.893 81.232C136.965 81.232 138.245 81.216 139.573 81.184V80.192C137.957 80 136.949 79.216 136.949 78.032C136.949 76.656 138.309 75.808 140.389 75.808C142.469 75.808 143.829 76.656 143.829 78.032C143.829 79.2 142.837 80 141.237 80.192V81.104C142.485 81.024 143.749 80.928 144.917 80.752ZM139.637 83.36V85.616H147.813V86.96H137.989V83.36H139.637ZM147.333 77.68H149.317V79.04H147.333V84.08H145.685V72.768H147.333V77.68ZM152.34 77.088C152.34 78.336 153.268 79.168 154.548 79.168C155.796 79.168 156.724 78.336 156.724 77.088C156.724 75.824 155.796 74.992 154.548 74.992C153.268 74.992 152.34 75.824 152.34 77.088ZM160.9 76.112H158.164C158.244 76.416 158.292 76.736 158.292 77.088C158.292 77.44 158.244 77.76 158.148 78.064H160.9V76.112ZM160.9 79.392H157.412C156.74 80.128 155.716 80.56 154.548 80.56C152.388 80.56 150.772 79.12 150.772 77.088C150.772 75.04 152.388 73.6 154.548 73.6C155.732 73.6 156.74 74.048 157.412 74.768H160.9V72.768H162.548V81.296H160.9V79.392ZM157.732 85.936C159.796 85.936 160.98 85.408 160.98 84.416C160.98 83.456 159.796 82.912 157.732 82.912C155.684 82.912 154.484 83.456 154.484 84.416C154.484 85.408 155.684 85.936 157.732 85.936ZM157.732 81.616C160.74 81.616 162.612 82.656 162.612 84.416C162.612 86.192 160.74 87.232 157.732 87.232C154.724 87.232 152.868 86.192 152.868 84.416C152.868 82.656 154.724 81.616 157.732 81.616ZM173.682 74.16V75.488H165.154V74.16H168.594V72.656H170.242V74.16H173.682ZM167.49 78.56C167.49 79.392 168.258 79.888 169.41 79.888C170.562 79.888 171.346 79.392 171.346 78.56C171.346 77.744 170.562 77.248 169.41 77.248C168.258 77.248 167.49 77.744 167.49 78.56ZM172.914 78.56C172.914 80.096 171.506 81.12 169.41 81.12C167.33 81.12 165.906 80.096 165.906 78.56C165.906 77.04 167.33 76.016 169.41 76.016C171.506 76.016 172.914 77.04 172.914 78.56ZM174.786 85.744V84.416H168.818V85.744H174.786ZM174.786 83.136V81.808H176.418V87.056H167.186V81.808H168.818V83.136H174.786ZM178.466 76.384V77.744H176.418V81.216H174.77V72.784H176.418V76.384H178.466ZM182.177 74.192V82.176C184.225 82.16 186.385 81.984 188.657 81.52L188.833 82.896C186.353 83.408 184.017 83.584 181.777 83.584H180.545V74.192H182.177ZM189.985 72.784H191.633V87.232H189.985V72.784ZM196.48 75.488V82.32C198.816 82.304 200.576 82.208 202.592 81.856L202.768 83.216C200.576 83.616 198.624 83.696 196.016 83.696H194.832V74.144H201.552V75.488H196.48ZM207.696 78.336V79.696H205.44V87.248H203.792V72.768H205.44V78.336H207.696Z" fill="#939393"/>
<path d="M9.074 100.99C10.166 100.99 10.936 99.8 10.936 97.826C10.936 95.852 10.166 94.662 9.074 94.662C7.968 94.662 7.212 95.852 7.212 97.826C7.212 99.8 7.968 100.99 9.074 100.99ZM9.074 93.36C10.964 93.36 12.322 95.096 12.322 97.826C12.322 100.556 10.964 102.278 9.074 102.278C7.184 102.278 5.826 100.556 5.826 97.826C5.826 95.096 7.184 93.36 9.074 93.36ZM17.474 97.378V98.568H15.5V105.092H14.058V92.436H15.5V97.378H17.474ZM27.3989 92.422H28.8549V105.106H27.3989V92.422ZM22.1209 93.36C24.0109 93.36 25.3829 95.096 25.3829 97.812C25.3829 100.556 24.0109 102.278 22.1209 102.278C20.2449 102.278 18.8729 100.556 18.8729 97.812C18.8729 95.096 20.2449 93.36 22.1209 93.36ZM22.1209 94.662C21.0289 94.662 20.2589 95.852 20.2589 97.812C20.2589 99.8 21.0289 100.99 22.1209 100.99C23.2269 100.99 23.9969 99.8 23.9969 97.812C23.9969 95.852 23.2269 94.662 22.1209 94.662ZM33.4038 94.788V100.808C35.7558 100.794 37.2678 100.724 38.9618 100.402L39.1158 101.606C37.2818 101.942 35.6438 102.012 33.0258 102.012H31.9758V93.598H37.9958V94.788H33.4038ZM40.1378 92.422H41.5938V105.106H40.1378V92.422ZM45.6947 96.258C45.6947 97.364 46.5347 98.05 47.6827 98.05C48.8307 98.05 49.6567 97.364 49.6567 96.258C49.6567 95.152 48.8307 94.452 47.6827 94.452C46.5347 94.452 45.6947 95.152 45.6947 96.258ZM48.4107 99.226V101.172C49.4887 101.13 50.5667 101.046 51.5747 100.906L51.7007 101.97C49.0547 102.432 46.1567 102.446 43.9867 102.446L43.7907 101.256C44.7427 101.256 45.8347 101.256 46.9687 101.228V99.24C45.4007 98.96 44.2947 97.812 44.2947 96.258C44.2947 94.466 45.7367 93.22 47.6827 93.22C49.6287 93.22 51.0567 94.466 51.0567 96.258C51.0567 97.812 49.9787 98.946 48.4107 99.226ZM55.6067 97.532V98.736H53.7587V105.064H52.3167V92.436H53.7587V97.532H55.6067ZM68.6202 92.422H70.0762V105.106H68.6202V92.422ZM60.3462 93.472H61.7742V96.692H64.9802V93.472H66.4222V102.096H60.3462V93.472ZM61.7742 97.84V100.934H64.9802V97.84H61.7742ZM82.8291 92.436V98.89H81.3731V92.436H82.8291ZM77.6491 97.21V94.256H74.4711V97.21H77.6491ZM79.0491 93.108V98.358H73.0571V93.108H79.0491ZM75.9831 103.832H83.2071V104.966H74.5551V101.648H81.4011V100.612H74.5271V99.492H82.8291V102.712H75.9831V103.832ZM90.136 98.554V96.496H87.154V98.554H90.136ZM91.55 97.084V99.73H85.726V93.276H87.154V95.362H90.136V93.276H91.55V95.908H94.182V92.436H95.624V101.802H94.182V97.084H91.55ZM88.848 103.664H95.918V104.84H87.392V100.878H88.848V103.664ZM108.755 94.158V95.32H98.4089V94.158H102.875V92.604H104.317V94.158H108.755ZM100.845 98.47C100.845 99.31 101.853 99.786 103.575 99.786C105.311 99.786 106.319 99.31 106.319 98.47C106.319 97.644 105.311 97.168 103.575 97.168C101.853 97.168 100.845 97.644 100.845 98.47ZM104.317 102.516H109.343V103.706H97.8769V102.516H102.875V100.892C100.705 100.738 99.3749 99.87 99.3749 98.47C99.3749 96.944 100.999 96.048 103.575 96.048C106.165 96.048 107.789 96.944 107.789 98.47C107.789 99.87 106.487 100.724 104.317 100.892V102.516ZM119.212 94.592V93.738H112.058V92.744H120.64V95.53H113.5V96.426H120.864V97.434H112.086V94.592H119.212ZM113.402 102.978V103.944H121.06V104.938H111.974V102.04H119.254V101.144H111.946V100.15H120.682V102.978H113.402ZM110.616 98.232H122.082V99.296H110.616V98.232ZM135.347 92.436H136.789V99.226H135.347V92.436ZM128.529 99.814H129.957V101.214H135.361V99.814H136.789V104.924H128.529V99.814ZM129.957 102.334V103.762H135.361V102.334H129.957ZM129.971 93.01C131.903 93.01 133.317 94.214 133.317 95.95C133.317 97.686 131.903 98.89 129.971 98.89C128.039 98.89 126.611 97.686 126.611 95.95C126.611 94.214 128.039 93.01 129.971 93.01ZM129.971 94.2C128.823 94.2 128.025 94.9 128.025 95.95C128.025 97.014 128.823 97.7 129.971 97.7C131.105 97.7 131.917 97.014 131.917 95.95C131.917 94.9 131.105 94.2 129.971 94.2ZM145.678 98.288L145.832 99.45C144.306 99.716 143.018 99.758 140.54 99.758H139.616V95.838H143.648V94.326H139.588V93.164H145.076V96.944H141.03V98.582C143.144 98.582 144.306 98.526 145.678 98.288ZM141.03 102.026V100.85H149.584V105.106H148.142V102.026H141.03ZM148.142 92.436H149.584V100.22H148.142V98.064H145.874V96.902H148.142V95.418H145.874V94.256H148.142V92.436ZM155.533 101.172C156.555 101.172 157.297 100.472 157.297 99.408C157.297 98.344 156.555 97.644 155.533 97.644C154.511 97.644 153.769 98.344 153.769 99.408C153.769 100.472 154.511 101.172 155.533 101.172ZM155.533 96.454C157.339 96.454 158.669 97.686 158.669 99.408C158.669 101.144 157.339 102.362 155.533 102.362C153.713 102.362 152.397 101.144 152.397 99.408C152.397 97.686 153.713 96.454 155.533 96.454ZM156.233 92.632V94.382H159.187V95.558H151.781V94.382H154.791V92.632H156.233ZM163.611 97.518V98.722H161.665V105.092H160.209V92.436H161.665V97.518H163.611ZM168.468 93.598V95.81C168.468 97.854 169.238 99.996 170.932 101.06L170.12 102.18C168.972 101.48 168.216 100.248 167.782 98.834C167.334 100.388 166.508 101.718 165.29 102.46L164.408 101.368C166.2 100.304 167.068 98.036 167.068 95.88V93.598H168.468ZM171.436 96.86V92.674H172.794V104.49H171.436V98.036H169.574V96.86H171.436ZM174.012 92.436H175.384V105.078H174.012V92.436ZM181.445 99.604V102.348H184.637V99.59C184.147 99.716 183.601 99.772 183.041 99.772C182.481 99.772 181.935 99.716 181.445 99.604ZM183.041 94.298C181.123 94.298 179.793 95.138 179.793 96.468C179.793 97.812 181.123 98.652 183.041 98.652C184.945 98.652 186.275 97.812 186.275 96.468C186.275 95.138 184.945 94.298 183.041 94.298ZM186.079 102.348H188.781V103.524H177.329V102.348H180.003V99.058C178.995 98.498 178.393 97.588 178.393 96.468C178.393 94.452 180.339 93.164 183.041 93.164C185.729 93.164 187.689 94.452 187.689 96.468C187.689 97.588 187.087 98.484 186.079 99.058V102.348Z" fill="#939393"/>
<path d="M129.97 143V135.63H131.88C134.14 135.63 135.43 136.89 135.43 139.29C135.43 141.68 134.14 143 131.94 143H129.97ZM131.13 142.05H131.8C133.38 142.05 134.23 141.12 134.23 139.29C134.23 137.45 133.38 136.58 131.8 136.58H131.13V142.05ZM136.862 143V135.63H141.212V136.61H138.022V138.66H140.722V139.64H138.022V142.02H141.322V143H136.862ZM144.858 143.13C143.848 143.13 142.908 142.73 142.238 142.05L142.918 141.25C143.448 141.78 144.168 142.12 144.878 142.12C145.768 142.12 146.268 141.7 146.268 141.08C146.268 140.41 145.768 140.2 145.088 139.9L144.068 139.46C143.358 139.16 142.568 138.6 142.568 137.53C142.568 136.37 143.588 135.5 144.988 135.5C145.848 135.5 146.658 135.86 147.218 136.43L146.608 137.17C146.148 136.76 145.638 136.51 144.988 136.51C144.238 136.51 143.748 136.87 143.748 137.45C143.748 138.09 144.338 138.33 144.938 138.57L145.948 139C146.818 139.37 147.448 139.91 147.448 140.99C147.448 142.17 146.468 143.13 144.858 143.13ZM148.742 143V135.63H149.902V143H148.742ZM154.728 143.13C152.768 143.13 151.328 141.75 151.328 139.34C151.328 136.94 152.808 135.5 154.758 135.5C155.798 135.5 156.498 135.96 156.948 136.43L156.328 137.17C155.958 136.8 155.508 136.51 154.798 136.51C153.428 136.51 152.518 137.57 152.518 139.3C152.518 141.05 153.328 142.12 154.848 142.12C155.298 142.12 155.748 141.99 156.008 141.76V140.03H154.548V139.08H157.058V142.27C156.568 142.76 155.738 143.13 154.728 143.13ZM158.64 143V135.63H159.83L162.27 139.96L163.04 141.52H163.09C163.03 140.76 162.94 139.87 162.94 139.07V135.63H164.04V143H162.85L160.41 138.66L159.64 137.12H159.59C159.65 137.88 159.74 138.73 159.74 139.53V143H158.64ZM168.03 143V135.63H169.19V143H168.03ZM171.016 143V135.63H172.206L174.646 139.96L175.416 141.52H175.466C175.406 140.76 175.316 139.87 175.316 139.07V135.63H176.416V143H175.226L172.786 138.66L172.016 137.12H171.966C172.026 137.88 172.116 138.73 172.116 139.53V143H171.016ZM181.616 143V140.21L179.406 135.63H180.646L181.496 137.59C181.726 138.14 181.936 138.65 182.186 139.21H182.226C182.466 138.65 182.706 138.14 182.926 137.59L183.786 135.63H184.996L182.776 140.21V143H181.616ZM188.467 143.13C186.577 143.13 185.267 141.66 185.267 139.29C185.267 136.92 186.577 135.5 188.467 135.5C190.357 135.5 191.677 136.92 191.677 139.29C191.677 141.66 190.357 143.13 188.467 143.13ZM188.467 142.12C189.687 142.12 190.487 141.01 190.487 139.29C190.487 137.56 189.687 136.51 188.467 136.51C187.247 136.51 186.457 137.56 186.457 139.29C186.457 141.01 187.247 142.12 188.467 142.12ZM195.806 143.13C194.176 143.13 193.066 142.24 193.066 139.84V135.63H194.226V139.92C194.226 141.58 194.886 142.12 195.806 142.12C196.736 142.12 197.416 141.58 197.416 139.92V135.63H198.536V139.84C198.536 142.24 197.436 143.13 195.806 143.13ZM200.34 143V135.63H202.75C204.27 135.63 205.41 136.18 205.41 137.77C205.41 138.91 204.8 139.59 203.87 139.88L205.67 143H204.36L202.69 140.03H201.5V143H200.34ZM201.5 139.1H202.61C203.68 139.1 204.26 138.66 204.26 137.77C204.26 136.88 203.68 136.57 202.61 136.57H201.5V139.1ZM211.819 143.13C209.969 143.13 208.549 141.75 208.549 139.34C208.549 136.94 210.009 135.5 211.869 135.5C212.789 135.5 213.509 135.94 213.959 136.43L213.329 137.17C212.949 136.78 212.489 136.51 211.889 136.51C210.619 136.51 209.739 137.57 209.739 139.3C209.739 141.05 210.559 142.12 211.859 142.12C212.539 142.12 213.049 141.82 213.489 141.34L214.109 142.07C213.519 142.75 212.769 143.13 211.819 143.13ZM217.762 143.13C215.872 143.13 214.562 141.66 214.562 139.29C214.562 136.92 215.872 135.5 217.762 135.5C219.652 135.5 220.972 136.92 220.972 139.29C220.972 141.66 219.652 143.13 217.762 143.13ZM217.762 142.12C218.982 142.12 219.782 141.01 219.782 139.29C219.782 137.56 218.982 136.51 217.762 136.51C216.542 136.51 215.752 137.56 215.752 139.29C215.752 141.01 216.542 142.12 217.762 142.12ZM222.401 143V135.63H226.761V136.61H223.561V138.86H226.281V139.83H223.561V143H222.401ZM227.965 143V135.63H232.325V136.61H229.125V138.86H231.845V139.83H229.125V143H227.965ZM233.529 143V135.63H237.879V136.61H234.689V138.66H237.389V139.64H234.689V142.02H237.989V143H233.529ZM239.425 143V135.63H243.775V136.61H240.585V138.66H243.285V139.64H240.585V142.02H243.885V143H239.425Z" fill="#242021"/>
<path d="M31.0076 143.742C31.0312 143.331 31.0546 142.845 31.0779 142.307C31.0779 141.795 31.1012 141.308 31.1012 140.872V128.934C31.1012 128.524 31.0779 128.063 31.0779 127.499C31.0546 126.987 31.0312 126.5 31.0076 126.065H36.0665C36.9567 126.065 37.7996 126.142 38.5489 126.27C39.2985 126.423 39.9309 126.68 40.4694 127.038C40.9846 127.397 41.4065 127.884 41.7106 128.448C41.9917 129.062 42.1322 129.78 42.1322 130.651C42.1322 131.676 41.9683 132.495 41.6403 133.085C41.289 133.699 40.7738 134.161 40.0948 134.493C40.8677 134.852 41.5234 135.364 42.0386 136.082C42.5538 136.825 42.8112 137.722 42.8112 138.798C42.8112 139.771 42.6474 140.591 42.343 141.206C42.015 141.847 41.5701 142.359 41.0079 142.717C40.4225 143.102 39.7431 143.358 38.9472 143.511C38.1276 143.665 37.2374 143.742 36.277 143.742H31.0076V143.742ZM34.1227 133.264H35.3875C35.8557 133.264 36.3243 133.238 36.7925 133.161C37.2378 133.11 37.6357 132.981 37.9867 132.802C38.3148 132.649 38.5958 132.393 38.8066 132.085C38.9941 131.778 39.1113 131.393 39.1113 130.881C39.1113 130.445 39.0411 130.087 38.9005 129.805C38.7364 129.549 38.5256 129.318 38.2914 129.164C38.034 129.036 37.7526 128.934 37.4719 128.883C37.1442 128.831 36.8395 128.806 36.5118 128.806H34.123V133.264H34.1227ZM34.1227 141.001H36.7223C37.6594 141.001 38.4087 140.847 38.9475 140.513C39.4627 140.206 39.7434 139.54 39.7434 138.567C39.7434 138.054 39.6265 137.644 39.3921 137.286C39.1347 136.978 38.83 136.696 38.4553 136.492C38.0806 136.312 37.659 136.184 37.1908 136.107C36.7223 136.056 36.2537 136.005 35.8324 136.005H34.1227V141.001Z" fill="#7FA7CA"/>
<path d="M52.2711 140.924C52.5991 140.924 52.9738 140.924 53.4187 140.898C53.8403 140.898 54.215 140.872 54.5666 140.821V143.844C54.2386 143.818 53.8876 143.793 53.489 143.767C53.0677 143.767 52.6927 143.742 52.3883 143.742H44.6599C44.6832 143.357 44.7065 142.896 44.7298 142.333C44.7298 141.795 44.7535 141.308 44.7535 140.872V128.934C44.7535 128.524 44.7298 128.062 44.7298 127.524C44.7065 127.012 44.6832 126.526 44.6599 126.064H47.8449C47.7983 126.5 47.7983 126.986 47.7983 127.524C47.7746 128.088 47.7746 128.549 47.7746 128.934V140.924H52.2711Z" fill="#7FA7CA"/>
<path d="M58.8743 136.005C58.8743 136.85 58.9209 137.593 59.0382 138.234C59.1317 138.9 59.3192 139.438 59.6003 139.847C59.8344 140.309 60.1858 140.642 60.6307 140.847C61.0523 141.102 61.5908 141.205 62.2468 141.205C62.9025 141.205 63.4411 141.102 63.886 140.847C64.3076 140.642 64.6356 140.309 64.9167 139.847C65.1508 139.438 65.3383 138.9 65.4558 138.234C65.5491 137.593 65.6197 136.85 65.6197 136.005V128.959C65.6197 128.549 65.5963 128.062 65.5963 127.524C65.573 127.012 65.5494 126.526 65.5494 126.064H68.7114C68.6881 126.5 68.6881 126.986 68.6881 127.524C68.6645 128.088 68.6645 128.549 68.6645 128.959V136.363C68.6645 138.925 68.1023 140.821 67.0253 142.102C65.9244 143.408 64.3315 144.049 62.2475 144.049C60.1394 144.049 58.5469 143.408 57.4696 142.102C56.369 140.821 55.8301 138.925 55.8301 136.363V128.959C55.8301 128.549 55.8068 128.062 55.8068 127.524C55.7835 127.012 55.7602 126.526 55.7602 126.064H58.9219C58.8986 126.5 58.8986 126.986 58.8986 127.524C58.8753 128.088 58.8753 128.549 58.8753 128.959V136.005H58.8743Z" fill="#7FA7CA"/>
<path d="M74.6803 140.924H79.5285C79.8329 140.924 80.2078 140.924 80.6531 140.898C81.0744 140.898 81.4723 140.872 81.8003 140.821V143.844C81.4726 143.818 81.1213 143.793 80.7227 143.767C80.3017 143.767 79.9268 143.742 79.6227 143.742H71.5892C71.6125 143.28 71.6362 142.794 71.6598 142.307V140.847V128.933C71.6598 128.524 71.6365 128.062 71.6365 127.499C71.6129 126.986 71.5895 126.5 71.5662 126.064H79.5291C79.8335 126.064 80.1852 126.064 80.6064 126.038C80.9811 126.038 81.3557 126.013 81.7068 125.962V128.985C81.5432 128.985 81.3554 128.959 81.1686 128.933C80.9575 128.933 80.7467 128.933 80.5595 128.908C80.3254 128.908 80.1382 128.908 79.9504 128.882H79.4119H74.6807V133.186H78.9667C79.271 133.186 79.6227 133.186 80.0437 133.161C80.4186 133.161 80.7933 133.135 81.1446 133.084V136.107C80.8166 136.081 80.4653 136.056 80.0673 136.03C79.646 136.03 79.271 136.004 78.9667 136.004H74.6807V140.924H74.6803Z" fill="#7FA7CA"/>
<path d="M83.9997 128.934C83.9997 128.524 83.977 128.062 83.977 127.499C83.9537 126.986 83.9304 126.5 83.9067 126.064H88.8481C89.6913 126.064 90.4876 126.166 91.2842 126.32C92.0568 126.5 92.7595 126.782 93.3686 127.191C93.9773 127.601 94.4459 128.165 94.8202 128.857C95.1715 129.574 95.3594 130.445 95.3594 131.496C95.3594 132.52 95.1715 133.392 94.7969 134.083C94.4226 134.801 93.9304 135.339 93.3686 135.749C92.7595 136.184 92.1034 136.491 91.3778 136.645C90.6278 136.85 89.8791 136.927 89.1758 136.927H87.0212V140.872C87.0212 141.308 87.0212 141.795 87.0445 142.333C87.0445 142.896 87.0445 143.358 87.0914 143.742H83.9067C83.9301 143.357 83.9534 142.896 83.977 142.333C83.977 141.795 83.9997 141.308 83.9997 140.872V128.934ZM87.0212 134.16H89.4103C89.7377 134.16 90.0657 134.109 90.417 134.007C90.7447 133.93 91.0727 133.776 91.3538 133.571C91.6116 133.366 91.846 133.11 92.0328 132.751C92.1973 132.418 92.2909 132.009 92.2909 131.496C92.2909 130.984 92.1737 130.548 91.9865 130.19C91.7524 129.856 91.4943 129.575 91.1903 129.37C90.8626 129.165 90.5109 129.036 90.1363 128.934C89.738 128.883 89.3866 128.832 89.0586 128.832H87.0212V134.16Z" fill="#7FA7CA"/>
<path d="M96.1297 134.903C96.1297 133.52 96.2942 132.264 96.6449 131.137C96.9726 130.036 97.4645 129.087 98.0969 128.268C98.7057 127.499 99.4786 126.884 100.368 126.423C101.235 126.013 102.219 125.782 103.32 125.782C104.397 125.782 105.403 126.013 106.294 126.423C107.161 126.884 107.91 127.499 108.542 128.268C109.151 129.087 109.643 130.036 109.994 131.137C110.322 132.264 110.509 133.52 110.509 134.903C110.509 136.312 110.322 137.568 109.994 138.695C109.643 139.822 109.151 140.796 108.542 141.564C107.91 142.358 107.161 142.973 106.294 143.383C105.404 143.819 104.397 144.024 103.32 144.024C102.219 144.024 101.235 143.819 100.368 143.383C99.4786 142.973 98.7057 142.358 98.0969 141.564C97.4648 140.796 96.9726 139.822 96.6449 138.695C96.2942 137.568 96.1297 136.312 96.1297 134.903ZM99.1982 134.903C99.1982 135.723 99.2684 136.492 99.4083 137.234C99.5256 138.003 99.7603 138.695 100.088 139.258C100.392 139.873 100.814 140.335 101.353 140.667C101.868 141.026 102.523 141.206 103.32 141.206C104.093 141.206 104.749 141.026 105.287 140.667C105.802 140.335 106.248 139.873 106.575 139.258C106.879 138.695 107.114 138.003 107.254 137.234C107.371 136.492 107.442 135.723 107.442 134.903C107.442 134.083 107.371 133.289 107.231 132.521C107.067 131.778 106.833 131.111 106.505 130.522C106.177 129.959 105.756 129.472 105.241 129.113C104.701 128.78 104.069 128.601 103.32 128.601C102.57 128.601 101.938 128.78 101.423 129.113C100.884 129.472 100.463 129.959 100.135 130.522C99.8073 131.112 99.5725 131.778 99.4323 132.521C99.2684 133.289 99.1982 134.083 99.1982 134.903Z" fill="#7FA7CA"/>
<path d="M119.267 128.883V140.872C119.267 141.282 119.267 141.667 119.29 142.076C119.29 142.486 119.313 143.05 119.36 143.742H116.105C116.129 143.332 116.152 142.845 116.175 142.307V140.873V128.883H113.482C113.155 128.883 112.803 128.909 112.405 128.909C111.983 128.934 111.609 128.96 111.304 128.986V125.963C111.632 126.014 112.03 126.039 112.475 126.039C112.896 126.065 113.272 126.065 113.6 126.065H121.843C122.148 126.065 122.523 126.065 122.968 126.039C123.389 126.039 123.787 126.014 124.139 125.963V128.986C123.811 128.96 123.46 128.934 123.038 128.909C122.617 128.909 122.242 128.883 121.937 128.883H119.267V128.883Z" fill="#7FA7CA"/>
<path d="M10.2337 124.967H18.5393C18.6878 124.967 18.8076 124.836 18.8076 124.673C18.8076 124.511 18.6878 124.38 18.5393 124.38H18.5182C18.4882 124.274 18.4527 124.077 18.4527 124.077H18.454C18.4189 122.039 17.1234 120.337 15.3808 119.86C15.4121 119.826 15.4309 119.779 15.4309 119.727C15.4309 119.622 15.3536 119.537 15.2584 119.537H15.1013C15.0559 119.495 14.9272 119.354 14.9205 119.123C14.9659 119.117 15.0007 119.075 15.0007 119.023C15.0007 118.982 14.9783 118.948 14.9464 118.931H15.2814C15.3348 118.931 15.3798 118.897 15.4047 118.85L15.4753 118.709H15.5453C15.5794 118.709 15.6066 118.679 15.6066 118.643C15.6066 118.606 15.5794 118.576 15.5453 118.576H15.528C15.5309 118.556 15.5331 118.536 15.5331 118.515C15.5331 118.231 15.3226 118 15.0633 118H14.65H14.2894H13.877C13.6171 118 13.4066 118.231 13.4066 118.515C13.4066 118.536 13.4091 118.556 13.4117 118.576H13.3935C13.3609 118.576 13.3338 118.607 13.3338 118.643C13.3338 118.679 13.3609 118.709 13.3935 118.709H13.4641L13.535 118.85C13.5602 118.897 13.6052 118.931 13.6586 118.931H13.9936C13.962 118.947 13.94 118.982 13.94 119.023C13.94 119.074 13.9738 119.116 14.0185 119.123C14.0118 119.353 13.8838 119.495 13.839 119.537H13.6816C13.5858 119.537 13.5085 119.622 13.5085 119.727C13.5085 119.763 13.5184 119.796 13.534 119.825C11.7211 120.246 10.356 121.984 10.3206 124.076C10.3206 124.076 10.2851 124.274 10.2548 124.38H10.2334C10.0848 124.38 9.96507 124.511 9.96507 124.673C9.96539 124.836 10.0848 124.967 10.2337 124.967Z" fill="#84A8C6"/>
<path d="M26.0285 139.78L24.0352 133.845C21.8882 127.266 21.5969 126.724 20.1357 126.579C19.5786 126.524 19.028 126.837 18.624 127.154C18.624 126.574 18.6281 126.129 18.6307 125.887H18.6319L18.807 125.599C18.807 125.518 18.7476 125.454 18.6744 125.454H10.098C10.0245 125.454 9.96478 125.518 9.96478 125.599L10.1877 125.887H10.1903C10.2034 127.018 10.2417 132.61 9.7872 135.461C9.46972 137.448 9.12221 139.231 8.66994 141.07C8.17552 140.551 7.46358 139.598 7.17101 138.194L5.12112 128.149C5.12112 128.149 4.46477 124.967 2.68029 124.732H2.11752C2.11752 124.732 1.78023 124.785 2.24847 125.161C2.24847 125.161 3.83715 126.25 4.23767 128.196L6.39328 138.76C6.39328 138.76 6.80978 141.146 8.36396 142.262C8.17073 142.986 7.95929 143.726 7.72517 144.497C7.72517 144.497 7.12662 145.844 10.8326 146.348C10.8326 146.348 12.8371 146.485 14.1259 146.523V146.534C14.2115 146.534 14.3073 146.532 14.4098 146.53C14.512 146.532 14.6082 146.534 14.6941 146.534V146.523C15.9819 146.485 17.9861 146.348 17.9861 146.348C21.693 145.844 21.0935 144.497 21.0935 144.497C21.083 144.463 21.0731 144.43 21.0629 144.396L25.5402 142.633L25.5798 142.616C26.6277 142.08 26.3582 140.591 26.0285 139.78ZM25.2051 141.693L20.7805 143.434C19.9942 140.692 19.4838 138.282 19.0331 135.46C18.7364 133.602 18.6501 130.576 18.6294 128.382L18.6792 128.432C18.9299 128.136 19.5898 127.535 20.0517 127.584C20.8527 127.662 21.044 127.683 23.1664 134.187L25.1668 140.144L25.1796 140.178C25.2818 140.425 25.6015 141.461 25.2051 141.693Z" fill="#84A8C6"/>
</svg>
